<?xml version="1.0" encoding="UTF-8"?>
<svg xmlns:xodm="http://www.corel.com/coreldraw/odm/2003" xmlns="http://www.w3.org/2000/svg" xmlns:xlink="http://www.w3.org/1999/xlink" version="1.1" id="Layer_1" x="0px" y="0px" viewBox="0 0 2500 581" style="enable-background:new 0 0 2500 581;" xml:space="preserve">
<style type="text/css">
	.st0{fill-rule:evenodd;clip-rule:evenodd;fill:#3375BB;}
	.st1{fill:#3375BB;}
</style>
<g id="Layer_x0020_1">
	<g id="_2090548371504">
		<path class="st0" d="M21.2,99.3C1.5,138.1,1.5,189,1.5,290.8s0,152.7,19.7,191.5c17.2,34.4,45.2,61.7,79.5,79.5    c38.8,19.7,89.7,19.7,191.5,19.7s152.7,0,191.5-19.7c34.4-17.2,61.7-45.2,79.5-79.5c19.7-38.8,19.7-89.7,19.7-191.5    s0-152.7-19.7-191.5c-17.2-34.4-45.2-61.7-79.5-79.5C445,0,394.1,0,292.3,0S139.5,0,100.7,19.7C66.4,36.9,39,64.9,21.2,99.3z     M436.7,156.5c5.1,0,10.2,1.9,13.4,5.7c3.8,3.8,5.7,8.3,5.7,13.4c-0.6,54.1-3.2,95.5-7,128.5c-3.8,32.5-9.5,57.3-18.5,77    c-5.7,13.4-12.7,24.2-21.6,33.1c-11.5,12.1-24.2,21-38.2,29.9c-6.4,3.8-12.1,7-19.1,10.8c-14,8.3-29.3,16.5-47.1,28.6    c-6.4,4.5-14.6,4.5-21,0c-17.8-12.1-33.7-21-47.7-28.6c-3.2-1.9-6.4-3.8-9.5-5.1c-16.5-9.5-31.8-19.1-44.5-31.8    c-8.9-8.9-16.5-19.1-22.3-31.8c-8.3-17.2-14-37.5-17.8-63.6c-5.7-35-8.3-81.5-8.9-145.7c0-5.1,1.9-10.2,5.1-13.4    c3.8-3.8,8.3-5.7,13.4-5.7h7.6c24.2,0,77-2.5,122.8-38.2c7-5.1,16.5-5.1,22.9,0c45.8,35.6,99.3,38.2,123.5,38.2h7.6L436.7,156.5z     M394.7,368.5c5.7-12.1,10.8-29.3,14.6-52.8c4.5-28.6,7-68.1,8.3-121.5c-28-0.6-77-6.4-123.5-37.5    c-46.5,31.2-94.8,36.3-123.5,37.5c1.3,43.9,3.2,78.3,6.4,105.6c3.8,30.5,8.9,51.5,15.3,66.2c4.5,9.5,8.9,16.5,14.6,22.9    c7.6,8.3,17.2,15.3,29.9,22.9c5.1,3.2,11.5,6.4,17.8,10.2c11.5,6.4,24.8,14,39.5,23.5c14.6-8.9,27.4-16.5,38.8-22.9    c3.2-1.9,7-3.8,9.5-5.7c15.9-8.9,28-16.5,36.3-25.5c5.7-6.4,10.8-12.7,15.3-21.6L394.7,368.5z"></path>
		<path class="st1" d="M816.6,232.3h-64.9v-38.2h176.9v38.2h-64.9v164.8h-47.1V232.3z M982.1,261.5c5.7-7.6,12.7-13.4,21.6-17.2    c9.5-3.8,19.7-5.7,31.8-5.7v42c-5.1-0.6-8.3-0.6-10.2-0.6c-12.7,0-22.9,3.8-30.5,10.8c-7.6,7-10.8,17.8-10.8,32.5v73.8h-45.2    V240.5h43.3v20.4V261.5z M1212.5,241.2v156.5h-43.3v-18.5c-5.7,7-13.4,12.1-21.6,15.9c-8.3,3.2-17.2,5.1-26.7,5.1    c-20.4,0-36.9-5.7-49-17.8c-12.1-12.1-17.8-29.3-17.8-52.8v-88.5h45.2v81.5c0,25.5,10.8,37.5,31.8,37.5c10.8,0,19.7-3.2,26.1-10.2    s10.2-17.8,10.2-31.8v-77H1212.5z M1298.4,399.6c-12.7,0-25.5-1.3-38.2-4.5c-12.1-3.2-22.3-7.6-29.9-12.1l15.3-32.5    c7,4.5,15.3,8.3,25.5,10.8c10.2,2.5,19.7,3.8,29.3,3.8c19.1,0,28.6-4.5,28.6-14c0-4.5-2.5-7.6-7.6-9.5c-5.1-1.9-13.4-3.8-24.2-5.1    c-12.7-1.9-23.5-4.5-31.8-6.4c-8.3-2.5-15.9-7-21.6-13.4s-8.9-15.3-8.9-27.4c0-10.2,2.5-18.5,8.3-26.1c5.7-7.6,14-14,24.8-17.8    c10.8-4.5,24.2-6.4,38.8-6.4c10.8,0,22.3,1.3,33.1,3.8c10.8,2.5,20.4,5.7,27.4,10.2l-15.3,32.5c-14-7.6-28.6-11.5-45.2-11.5    c-9.5,0-17.2,1.3-21.6,3.8c-5.1,2.5-7,6.4-7,10.2c0,5.1,2.5,8.3,7.6,10.2c5.1,1.9,13.4,3.8,24.8,5.7c12.7,1.9,23.5,4.5,31.2,7    c8.3,2.5,15.3,6.4,21,13.4c5.7,6.4,8.9,15.3,8.9,26.7c0,9.5-3.2,18.5-8.9,26.1c-5.7,7.6-14.6,13.4-25.5,17.8    c-10.8,3.8-24.2,6.4-39.5,6.4L1298.4,399.6z M1491.8,389.5c-4.5,3.2-10.2,5.7-16.5,7.6c-6.4,1.3-13.4,2.5-20.4,2.5    c-18.5,0-33.1-4.5-43.3-14c-10.2-9.5-15.3-23.5-15.3-42v-64.3h-24.2v-35h24.2v-38.2h45.2v38.2h38.8v35h-38.8V343    c0,6.4,1.9,11.5,5.1,15.3c3.2,3.2,8.3,5.1,14.6,5.1c7,0,13.4-1.9,18.5-5.7L1491.8,389.5z M1892.7,193.5l-66.8,203h-50.3    L1731.1,259l-46.5,137.5h-50.3l-66.8-203h49l45.8,143.2l47.7-143.2h43.3l46.5,143.8l47.1-143.8h45.2H1892.7z M1958.3,238    c24.2,0,42.6,5.7,56,17.2c12.7,11.5,19.7,28.6,19.7,52.2v89.1h-42.6v-19.7c-8.3,14.6-24.2,21.6-47.7,21.6    c-12.1,0-22.3-1.9-31.2-6.4c-8.9-3.8-15.3-9.5-19.7-16.5s-7-15.3-7-24.2c0-14.6,5.7-26.1,16.5-34.4c10.8-8.3,28-12.7,50.9-12.7    h36.3c0-10.2-3.2-17.2-8.9-22.9c-5.7-5.7-15.3-8.3-26.7-8.3c-8.3,0-16.5,1.3-24.8,3.8c-7.6,2.5-14.6,5.7-20.4,10.2l-16.5-31.8    c8.3-5.7,18.5-10.8,30.5-14c12.1-3.2,24.2-5.1,36.9-5.1L1958.3,238z M1955.1,368.5c7.6,0,14.6-1.9,20.4-5.1    c5.7-3.8,10.2-8.9,12.7-15.9v-15.9H1957c-18.5,0-28,6.4-28,18.5c0,5.7,2.5,10.2,7,14c4.5,3.2,10.8,5.1,19.1,5.1V368.5z     M2065.8,181.4h45.2v215.7h-45.2V181.4z M2144.7,181.4h45.2v215.7h-45.2V181.4z M2376.4,319.5c0,0.6,0,4.5-0.6,12.1h-118.4    c1.9,9.5,7,17.2,15.3,22.9c7.6,5.7,17.8,8.3,29.9,8.3c8.3,0,15.3-1.3,21.6-3.2c6.4-2.5,12.1-6.4,17.8-11.5l24.2,26.1    c-14.6,16.5-36.3,25.5-64.3,25.5c-17.8,0-33.1-3.2-46.5-10.2c-13.4-7-24.2-16.5-31.2-28.6c-7.6-12.1-10.8-26.1-10.8-41.4    c0-15.3,3.8-29.3,10.8-41.4c7.6-12.1,17.2-22.3,29.9-28.6c12.7-7,26.7-10.2,42.6-10.2c15.3,0,29.3,3.2,41.4,10.2    c12.1,6.4,22.3,15.9,29.3,28.6c7,12.1,10.8,26.7,10.8,42.6L2376.4,319.5z M2295.5,273c-10.2,0-19.1,3.2-26.1,8.9    s-11.5,14-12.7,23.5h77c-1.3-10.2-5.7-17.8-12.7-23.5S2305.7,273,2295.5,273z M2498.5,389.5c-4.5,3.2-10.2,5.7-16.5,7.6    c-6.4,1.3-13.4,2.5-20.4,2.5c-18.5,0-33.1-4.5-43.3-14c-10.2-9.5-15.3-23.5-15.3-42v-64.3h-24.2v-35h24.2v-38.2h45.2v38.2h38.8v35    h-38.8V343c0,6.4,1.9,11.5,5.1,15.3c3.2,3.2,8.3,5.1,14.6,5.1c7,0,13.4-1.9,18.5-5.7L2498.5,389.5z"></path>
	</g>
</g>
</svg>
